<svg width="24" height="24" viewBox="0 0 24 24" fill="none" xmlns="http://www.w3.org/2000/svg">
<path d="M18.4655 9.74726C18.5732 9.74726 18.6606 9.65982 18.6606 9.55199V9.40221C18.9946 9.31927 19.2092 9.03532 19.2563 8.75458C19.3177 8.38949 19.1271 8.07219 18.771 7.94616C18.7346 7.93333 18.6976 7.91994 18.6606 7.90616V7.25364C18.7352 7.28022 18.7793 7.31677 18.7845 7.3212C18.8638 7.39262 18.986 7.38711 19.0585 7.30848C19.1315 7.22922 19.1266 7.1057 19.0473 7.03255C19.0384 7.02437 18.8954 6.89536 18.6606 6.85016V6.73384C18.6606 6.62597 18.5732 6.53857 18.4655 6.53857C18.3577 6.53857 18.2704 6.62601 18.2704 6.73384V6.8639C18.2566 6.86742 18.2426 6.87122 18.2286 6.87548C17.9923 6.94668 17.8159 7.14855 17.7681 7.40229C17.7243 7.63501 17.7996 7.86014 17.9648 7.9898C18.0439 8.05192 18.1405 8.10886 18.2703 8.16816V9.02855C18.1754 9.01603 18.1045 8.98514 17.9933 8.91239C17.9031 8.85336 17.7823 8.87869 17.7232 8.96894C17.6643 9.0592 17.6896 9.18021 17.7797 9.23923C17.9716 9.36483 18.1064 9.40804 18.2703 9.4215V9.55195C18.2704 9.65982 18.3577 9.74726 18.4655 9.74726ZM18.6606 8.32237C18.8901 8.4145 18.8852 8.60879 18.8715 8.6898C18.8525 8.80342 18.781 8.92331 18.6606 8.98804V8.32237ZM18.2056 7.68249C18.1563 7.64374 18.1351 7.56217 18.1516 7.47462C18.164 7.40844 18.2016 7.3318 18.2703 7.28397V7.7273C18.2469 7.71266 18.225 7.69775 18.2056 7.68249Z" fill="black"/>
<path d="M22 13.2094V12.5457C22 12.1123 21.7737 11.731 21.4332 11.5134C21.4502 11.4979 21.4669 11.482 21.4831 11.4657C21.7588 11.1885 21.9098 10.8253 21.9081 10.4428C21.9065 10.0686 21.7633 9.71341 21.5048 9.44277C21.4234 9.3576 21.3768 9.23458 21.3768 9.10531V8.74359C21.3768 8.58179 21.2457 8.45067 21.0841 8.45067C20.9225 8.45067 20.7914 8.58179 20.7914 8.74359V9.10531C20.7914 9.38805 20.8945 9.65161 21.0816 9.84758C21.2361 10.0093 21.3218 10.2217 21.3228 10.4454C21.3237 10.6709 21.2334 10.8864 21.0683 11.0524C20.8983 11.2232 20.6651 11.3212 20.4285 11.3212H16.5309C16.2943 11.3212 16.0611 11.2232 15.8911 11.0524C15.726 10.8864 15.6357 10.6709 15.6366 10.4454C15.6376 10.2217 15.7232 10.0094 15.8778 9.84754C16.0649 9.65161 16.168 9.38801 16.168 9.10531V6.59772C16.168 6.17142 16.3897 5.77941 16.7609 5.54907L17.703 4.96453H19.2564L20.1986 5.54907C20.5698 5.77941 20.7915 6.17142 20.7915 6.59772V7.37666C20.7915 7.53846 20.9225 7.66958 21.0841 7.66958C21.2458 7.66958 21.3768 7.53846 21.3768 7.37666V6.59772C21.3768 5.96723 21.0516 5.38903 20.5069 5.05111L19.6306 4.50743V3.84156C19.8223 3.69319 20.1316 3.37374 20.3167 2.76657C20.3721 2.58454 20.3391 2.39248 20.2261 2.23973C20.1134 2.0874 19.9401 2 19.7507 2H17.2088C17.0194 2 16.8461 2.08732 16.7334 2.23969C16.6204 2.39248 16.5873 2.5845 16.6428 2.76653C16.8278 3.3737 17.1372 3.69319 17.3289 3.84156V4.50743L16.4526 5.05111C15.9079 5.38903 15.5827 5.96719 15.5827 6.59772V9.10531C15.5827 9.23462 15.536 9.3576 15.4547 9.44277C15.1963 9.71337 15.053 10.0685 15.0514 10.4429C15.0497 10.8253 15.2006 11.1885 15.4764 11.4657C15.4926 11.482 15.5093 11.4979 15.5262 11.5134C15.1858 11.731 14.9595 12.1123 14.9595 12.5457V13.2094C14.9595 13.5821 15.1269 13.9163 15.3902 14.141C15.3359 14.1874 15.2854 14.2383 15.2399 14.2933C15.0153 14.0216 14.676 13.8481 14.297 13.8481H9.7032C9.02859 13.8481 8.47974 14.3974 8.47974 15.0726V15.7364C8.47974 16.1091 8.64719 16.4432 8.91049 16.668C8.85617 16.7143 8.80573 16.7652 8.76021 16.8202C8.53562 16.5485 8.1963 16.375 7.81721 16.375H5.21355C5.05193 16.375 4.92089 16.5062 4.92089 16.668C4.92089 16.8298 5.05193 16.9609 5.21355 16.9609H7.81721C8.16905 16.9609 8.45534 17.2474 8.45534 17.5995V18.2633C8.45534 18.579 8.22505 18.8412 7.92393 18.8923C7.88874 18.8892 3.15202 18.8892 3.11682 18.8923C2.81571 18.8412 2.58541 18.579 2.58541 18.2633V17.5995C2.58541 17.2474 2.87167 16.9609 3.2235 16.9609H3.84778C4.00941 16.9609 4.14045 16.8298 4.14045 16.668C4.14045 16.5062 4.00941 16.375 3.84778 16.375H3.22342C2.54881 16.375 2 16.9243 2 17.5995V18.2632C2 18.6319 2.16389 18.9628 2.4223 19.1875C2.16389 19.4121 2 19.743 2 20.1117V20.7755C2 21.4507 2.54881 22 3.22342 22H7.81717C8.19623 22 8.53558 21.8265 8.76017 21.5548C8.98475 21.8265 9.32407 22 9.70316 22H14.2969C14.676 22 15.0153 21.8265 15.2399 21.5548C15.4645 21.8265 15.8038 22 16.1828 22H20.7766C21.4512 22 22 21.4507 22 20.7755V20.1117C22 19.743 21.8361 19.4121 21.5777 19.1875C21.8361 18.9628 22 18.6319 22 18.2632V17.5995C22 17.2268 21.8326 16.8927 21.5693 16.6679C21.8326 16.4431 22 16.109 22 15.7363V15.0725C22 14.6999 21.8326 14.3657 21.5693 14.141C21.8326 13.9162 22 13.5821 22 13.2094ZM19.0453 4.37866H17.9142V3.97777H19.0453V4.37866ZM17.2026 2.59565C17.202 2.5935 17.2014 2.59154 17.2038 2.5883C17.2056 2.58583 17.2065 2.58583 17.2087 2.58583H19.7507C19.7529 2.58583 19.7538 2.58583 19.7556 2.5883C19.758 2.59151 19.7574 2.59346 19.7568 2.59565C19.6054 3.09244 19.359 3.31573 19.2543 3.3919H17.7052C17.6004 3.31573 17.354 3.09244 17.2026 2.59565ZM8.45526 20.7755C8.45526 21.1276 8.16901 21.4141 7.81713 21.4141H3.22342C2.87159 21.4141 2.58533 21.1276 2.58533 20.7755V20.1117C2.58533 19.796 2.81563 19.5338 3.11674 19.4827C3.15194 19.4858 7.88866 19.4858 7.92385 19.4827C8.22497 19.5337 8.45526 19.796 8.45526 20.1117V20.7755ZM8.76017 19.3325C8.717 19.2802 8.6694 19.2319 8.61833 19.1875C8.66944 19.1431 8.71704 19.0947 8.76017 19.0425C8.80334 19.0947 8.85093 19.1431 8.90201 19.1875C8.85089 19.2319 8.8033 19.2802 8.76017 19.3325ZM14.935 20.7755C14.935 21.1276 14.6487 21.4141 14.2969 21.4141H9.70312C9.35129 21.4141 9.065 21.1276 9.065 20.7755V20.1117C9.065 19.796 9.29529 19.5338 9.59641 19.4827C9.6316 19.4858 14.3683 19.4858 14.4035 19.4827C14.7046 19.5337 14.9349 19.796 14.9349 20.1117V20.7755H14.935ZM14.935 18.2632C14.935 18.5789 14.7047 18.8411 14.4036 18.8922C14.3684 18.8892 9.63164 18.8892 9.59644 18.8922C9.29533 18.8411 9.06504 18.5789 9.06504 18.2632V17.5995C9.06504 17.2473 9.35129 16.9608 9.70316 16.9608H14.2969C14.6487 16.9608 14.935 17.2473 14.935 17.5995V18.2632H14.935ZM14.935 15.7363C14.935 16.0885 14.6487 16.375 14.2969 16.375H9.70312C9.35129 16.375 9.065 16.0885 9.065 15.7363V15.0726C9.065 14.7204 9.35125 14.4339 9.70312 14.4339H14.2969C14.6487 14.4339 14.935 14.7204 14.935 15.0726V15.7363ZM15.2398 19.3325C15.1967 19.2802 15.1491 19.2319 15.098 19.1875C15.1491 19.1431 15.1967 19.0947 15.2398 19.0425C15.283 19.0947 15.3306 19.1431 15.3817 19.1875C15.3306 19.2319 15.283 19.2802 15.2398 19.3325ZM15.2398 16.8202C15.1943 16.7651 15.1439 16.7143 15.0895 16.6679C15.1439 16.6215 15.1943 16.5707 15.2398 16.5156C15.2854 16.5707 15.3358 16.6215 15.3901 16.6679C15.3358 16.7143 15.2854 16.7651 15.2398 16.8202ZM21.4147 20.7755C21.4147 21.1276 21.1284 21.4141 20.7766 21.4141H16.1828C15.831 21.4141 15.5447 21.1276 15.5447 20.7755V20.1117C15.5447 19.796 15.775 19.5338 16.0761 19.4827C16.1113 19.4858 20.8481 19.4858 20.8833 19.4827C21.1844 19.5337 21.4147 19.796 21.4147 20.1117V20.7755H21.4147ZM21.4147 18.2632C21.4147 18.5789 21.1844 18.8411 20.8833 18.8922C20.8481 18.8892 16.1113 18.8892 16.0761 18.8922C15.775 18.8411 15.5447 18.5789 15.5447 18.2632V17.5995C15.5447 17.2473 15.831 16.9608 16.1828 16.9608H20.7765C21.1284 16.9608 21.4146 17.2473 21.4146 17.5995V18.2632H21.4147ZM21.4147 15.7363C21.4147 16.0885 21.1284 16.375 20.7766 16.375H16.1828C15.831 16.375 15.5447 16.0885 15.5447 15.7363V15.0726C15.5447 14.7204 15.831 14.4339 16.1828 14.4339H20.7766C21.1284 14.4339 21.4147 14.7204 21.4147 15.0726V15.7363ZM21.4147 13.2094C21.4147 13.5616 21.1284 13.8481 20.7766 13.8481H16.1828C15.831 13.8481 15.5447 13.5616 15.5447 13.2094V12.5457C15.5447 12.1935 15.831 11.907 16.1828 11.907H20.7766C21.1284 11.907 21.4147 12.1935 21.4147 12.5457V13.2094Z" fill="black"/>
</svg>
