<svg width="24" height="24" viewBox="0 0 24 24" fill="none" xmlns="http://www.w3.org/2000/svg">
<path d="M21.8077 8.96497L19.5061 6.66329C19.3919 6.54912 19.2067 6.54905 19.0924 6.66329C18.9781 6.77758 18.9781 6.96278 19.0924 7.07702L21.3941 9.3787C21.4112 9.39586 21.4148 9.41548 21.4148 9.4289C21.4148 9.44232 21.4112 9.46194 21.394 9.4791L20.4405 10.4326C20.4233 10.4498 20.4037 10.4535 20.3903 10.4535C20.3769 10.4535 20.3572 10.4498 20.3401 10.4326L16.567 6.65959C16.5393 6.63189 16.5393 6.5868 16.567 6.55915L17.5205 5.60558C17.5481 5.57789 17.5932 5.57781 17.6209 5.60558L18.1222 6.10688C18.2365 6.22109 18.4217 6.22109 18.536 6.10688C18.6502 5.99259 18.6502 5.80739 18.536 5.69315L18.0346 5.19185C17.7787 4.93597 17.3626 4.93613 17.1068 5.19185L16.1532 6.14542C15.9536 6.34501 15.9105 6.64203 16.0224 6.88461C15.3492 7.39972 14.3507 7.32007 13.4666 7.24939C13.3836 7.24276 12.2587 7.15468 12.0414 7.1392C11.6313 7.10987 11.1473 7.08003 10.6577 7.08003C10.6495 7.08003 10.6412 7.08007 10.6331 7.08007C10.465 7.08042 10.2981 7.11435 10.1408 7.17746C9.73429 7.19868 9.33889 7.23699 8.94833 7.32459C8.66784 7.38747 8.38083 7.30587 8.18105 7.10601L7.97186 6.89682C8.09095 6.6521 8.04968 6.34836 7.84673 6.14542L6.89316 5.19185C6.63733 4.93609 6.22114 4.93609 5.96526 5.19185L2.19222 8.96497C2.06826 9.08889 2 9.25365 2 9.42894C2 9.60415 2.06826 9.76895 2.19218 9.89291L3.14571 10.8464C3.26967 10.9704 3.43443 11.0386 3.60968 11.0386C3.71406 11.0386 3.81442 11.0139 3.90491 10.9682C3.90491 10.9682 4.75106 11.7918 4.85774 11.8987C5.00339 12.0447 5.02835 12.2776 5.05721 12.5472C5.0725 12.6896 5.08826 12.8368 5.12399 12.9832C5.23847 13.4527 5.44228 13.9027 5.72975 14.3206C5.82129 14.4537 6.00337 14.4873 6.13657 14.3958C6.26966 14.3042 6.30332 14.1221 6.21178 13.989C5.96475 13.6298 5.79001 13.2448 5.69242 12.8446C5.66589 12.7359 5.65283 12.6139 5.63902 12.4848C5.60349 12.1532 5.56319 11.7775 5.27202 11.4855C5.16175 11.375 4.34244 10.5776 4.34244 10.5776L7.58387 7.33618L7.76739 7.5197C8.10975 7.86201 8.59895 8.00247 9.0765 7.89548C9.18501 7.87114 9.29508 7.85109 9.40656 7.8342C9.27862 8.06858 9.21731 8.33281 9.23443 8.59512C9.28214 9.32472 9.9008 9.90921 10.643 9.92587L11.1699 9.93749C11.173 9.93753 11.1761 9.93757 11.1792 9.93757L11.81 9.93133C12.2738 10.3986 15.9773 14.1335 16.1977 14.3388C16.3981 14.5255 16.6245 14.7413 16.6333 15.0348C16.6408 15.2853 16.4476 15.5418 16.2122 15.6199C15.9811 15.6965 15.7188 15.6386 15.546 15.466L11.9674 11.8874C11.8531 11.7732 11.6679 11.7732 11.5537 11.8874C11.4395 12.0017 11.4395 12.1869 11.5537 12.3011L15.8899 16.6373C16.0739 16.8995 16.037 17.2579 15.8008 17.4785C15.5499 17.7129 15.1419 17.6995 14.8909 17.4485L10.6471 13.2077C10.5328 13.0935 10.3476 13.0934 10.2334 13.2077C10.1191 13.322 10.1191 13.5072 10.2334 13.6214L13.6073 16.9954C13.8555 17.2472 13.8545 17.6537 13.6041 17.904C13.3528 18.1555 12.9435 18.1555 12.6918 17.9039L9.32192 14.5329C9.20763 14.4186 9.02244 14.4186 8.90819 14.5329C8.79394 14.6471 8.79394 14.8323 8.90819 14.9466C8.90819 14.9466 10.4839 16.5259 10.4927 16.5348C10.6146 16.6567 10.6817 16.8186 10.6817 16.9909C10.6817 17.1632 10.6146 17.3251 10.4927 17.447C10.2413 17.6985 9.83207 17.6984 9.58064 17.447C9.5652 17.4316 8.02733 15.8929 7.09537 14.9512C6.98175 14.8364 6.79651 14.8355 6.68168 14.949C6.56684 15.0627 6.56587 15.2479 6.67949 15.3627C7.61246 16.3055 9.15139 17.8452 9.16687 17.8607C9.64652 18.3403 10.4269 18.3403 10.9065 17.8607C11.0739 17.6933 11.1828 17.4893 11.2334 17.2743L12.2783 18.3177C12.5181 18.5575 12.8331 18.6774 13.1481 18.6774C13.4631 18.6774 13.7781 18.5575 14.0179 18.3177C14.1854 18.1501 14.2945 17.9458 14.345 17.7305L14.4774 17.8625C14.9485 18.3337 15.7214 18.3533 16.2002 17.906C16.6594 17.4771 16.7227 16.7745 16.3475 16.2718C16.3391 16.2605 16.2864 16.2063 16.2864 16.2063C16.4416 16.1943 16.6774 16.0645 16.8719 15.8797C16.8842 15.868 18.1079 14.6369 18.1265 14.6144C18.6729 13.9465 18.9929 13.1642 19.0522 12.3521C19.0673 12.1455 19.1542 11.9545 19.2956 11.8157L20.1468 10.9917C20.2232 11.0222 20.3055 11.0386 20.3903 11.0386C20.5655 11.0386 20.7303 10.9703 20.8543 10.8464L21.8078 9.89287C21.9317 9.76891 22 9.60415 22 9.4289C21.9999 9.25365 21.9317 9.08889 21.8077 8.96497ZM7.433 6.65959L3.65988 10.4327C3.64272 10.4499 3.6231 10.4535 3.60968 10.4535C3.59626 10.4535 3.57664 10.4499 3.55948 10.4327L2.60595 9.47914C2.58875 9.46198 2.58512 9.44236 2.58512 9.42894C2.58512 9.41552 2.58875 9.3959 2.60595 9.37874L6.37899 5.60562C6.39284 5.59181 6.41106 5.58487 6.42923 5.58487C6.44745 5.58487 6.46562 5.59177 6.47943 5.60562L7.433 6.55919C7.46069 6.58684 7.46069 6.63193 7.433 6.65959ZM18.8871 11.3968C18.6427 11.6368 18.494 11.9609 18.4686 12.3096C18.4183 12.9997 18.1442 13.6676 17.6769 14.2399C17.6579 14.2607 17.5677 14.3545 17.1791 14.7474C17.155 14.656 17.1192 14.5667 17.0733 14.4808C16.9771 14.3012 16.8344 14.1626 16.6927 14.0198L12.6129 9.90676C12.9976 9.89264 13.4056 9.87103 13.6921 9.82282C13.7047 9.83105 13.7185 9.84271 13.7249 9.85106C13.8645 10.1475 14.3136 10.7709 15.0324 11.0401C15.0663 11.0527 15.1009 11.0588 15.135 11.0588C15.2535 11.0588 15.365 10.9863 15.409 10.8688C15.4657 10.7175 15.389 10.5489 15.2377 10.4922C14.7355 10.3041 14.3673 9.84489 14.2532 9.59959C14.1567 9.3922 13.8773 9.19307 13.6305 9.23961C12.6626 9.42196 11.6302 9.36251 10.6559 9.34106C10.2142 9.33115 9.84623 8.98677 9.81815 8.55705C9.80356 8.33433 9.88891 8.10634 10.0523 7.93164C10.2102 7.76278 10.4222 7.6657 10.6342 7.66527C11.1138 7.6657 11.5933 7.69382 11.9997 7.72288C12.215 7.73828 12.4302 7.75541 12.6455 7.77249C12.8231 7.78661 13.0008 7.80073 13.1785 7.81392C13.2575 7.81977 13.3381 7.8262 13.4199 7.83276C14.3723 7.90878 15.5531 8.0027 16.4064 7.3267L19.6948 10.615L18.8871 11.3968Z" fill="black"/>
</svg>
