<svg width="24" height="24" viewBox="0 0 24 24" fill="none" xmlns="http://www.w3.org/2000/svg">
<path d="M18.5554 13.8417C18.8626 13.221 19.0894 12.5629 19.2311 11.8853C19.2393 11.8598 19.2451 11.8333 19.2479 11.806C19.3525 11.28 19.4064 10.743 19.4064 10.2032C19.4064 8.7287 19.0151 7.34401 18.3313 6.14702C18.3182 6.11546 18.3008 6.0862 18.2802 6.05948C16.8539 3.63277 14.2159 2.00004 11.2033 2C11.2033 2 11.2033 2 11.2032 2H11.2032C11.2032 2 11.2032 2 11.2031 2C8.1905 2 5.55242 3.63277 4.12609 6.0596C4.10558 6.08628 4.08824 6.1155 4.07512 6.14698C3.79504 6.63726 3.56433 7.15909 3.38922 7.70565C3.38043 7.72612 3.37367 7.74765 3.36848 7.76979C3.12906 8.53897 3 9.35628 3 10.2032C3 11.6776 3.39129 13.0623 4.075 14.2593C4.0882 14.2909 4.10558 14.3202 4.12621 14.347C5.55253 16.7736 8.19054 18.4063 11.2031 18.4063C11.2031 18.4063 11.2031 18.4063 11.2031 18.4063H11.2032C11.2032 18.4063 11.2032 18.4063 11.2032 18.4063C11.6106 18.4063 12.0179 18.376 12.419 18.3164C12.7175 20.3962 14.5108 22 16.6719 22C19.0412 22 20.9688 20.0724 20.9688 17.7031C20.9689 16.009 19.9832 14.541 18.5554 13.8417ZM18.5313 11.3751H17.2563C17.0406 11.3751 16.8657 11.5499 16.8657 11.7657C16.8657 11.9814 17.0406 12.1563 17.2563 12.1563H18.3637C18.2317 12.6416 18.0507 13.1131 17.8226 13.5622C17.8003 13.556 17.7777 13.5506 17.7552 13.5447C17.7488 13.543 17.7423 13.5413 17.7358 13.5397C17.7056 13.532 17.6755 13.5245 17.6452 13.5175C17.6381 13.5159 17.6309 13.5144 17.6238 13.5128C17.5713 13.5009 17.5186 13.49 17.4658 13.4801C17.4521 13.4776 17.4385 13.4749 17.4248 13.4724C17.4013 13.4683 17.3777 13.4645 17.354 13.4607C17.3344 13.4575 17.3147 13.4545 17.295 13.4517C17.2737 13.4486 17.2524 13.4454 17.2311 13.4427C17.2013 13.4388 17.1713 13.4354 17.1413 13.4321C17.1217 13.4299 17.1021 13.4279 17.0825 13.4261C17.0493 13.4229 17.0161 13.4201 16.9827 13.4177C16.9672 13.4166 16.9517 13.4156 16.9362 13.4147C16.906 13.4129 16.8756 13.4113 16.8452 13.4101C16.8313 13.4096 16.8173 13.409 16.8033 13.4085C16.7596 13.4072 16.7158 13.4063 16.6719 13.4063C16.6352 13.4063 16.5988 13.4068 16.5625 13.4078C16.5504 13.4081 16.5385 13.4087 16.5265 13.4091C16.5022 13.4099 16.4779 13.4106 16.4536 13.4119C16.4393 13.4126 16.425 13.4137 16.4106 13.4145C16.389 13.4158 16.3672 13.417 16.3456 13.4186C16.3302 13.4198 16.3149 13.4213 16.2995 13.4227C16.2791 13.4244 16.2586 13.4261 16.2383 13.4281C16.2226 13.4297 16.2069 13.4316 16.1913 13.4334C16.1714 13.4356 16.1515 13.4377 16.1317 13.4402C16.1158 13.4422 16.1001 13.4445 16.0842 13.4467C16.0647 13.4494 16.0453 13.452 16.0259 13.4549C16.0099 13.4573 15.9941 13.46 15.9782 13.4626C15.9591 13.4658 15.9399 13.4688 15.9209 13.4722C15.9049 13.475 15.889 13.4781 15.8729 13.4811C15.8542 13.4847 15.8355 13.4881 15.8169 13.4919C15.8008 13.4951 15.7849 13.4987 15.7689 13.5021C15.7504 13.5061 15.7319 13.51 15.7135 13.5142C15.6977 13.5178 15.6819 13.5217 15.6661 13.5255C15.6477 13.5299 15.6294 13.5343 15.6112 13.5389C15.5955 13.5429 15.5798 13.5472 15.5642 13.5514C15.546 13.5562 15.5279 13.561 15.5099 13.5661C15.4942 13.5705 15.4786 13.5751 15.4631 13.5797C15.4452 13.5849 15.4274 13.5902 15.4096 13.5956C15.394 13.6004 15.3785 13.6054 15.363 13.6104C15.3454 13.6161 15.3278 13.6217 15.3103 13.6276C15.2948 13.6328 15.2795 13.6381 15.2641 13.6435C15.2467 13.6495 15.2293 13.6556 15.212 13.6618C15.1967 13.6674 15.1815 13.6731 15.1663 13.6788C15.1491 13.6852 15.1319 13.6917 15.1149 13.6984C15.0997 13.7043 15.0847 13.7103 15.0697 13.7163C15.0676 13.7172 15.0655 13.718 15.0634 13.7188H14.1287C14.3024 12.7498 14.403 11.691 14.4224 10.5939H18.6143C18.6004 10.856 18.5725 11.1167 18.5313 11.3751ZM18.6148 9.81256H14.4224C14.4031 8.7155 14.3025 7.65663 14.1288 6.68757H17.7381C18.2454 7.62671 18.5561 8.68678 18.6148 9.81256ZM17.2516 5.90632H13.9683C13.8554 5.42261 13.7229 4.96788 13.5714 4.55015C13.3332 3.893 13.0558 3.35422 12.7492 2.94367C14.5961 3.33664 16.1913 4.4182 17.2516 5.90632ZM8.76542 9.81256C8.78546 8.70776 8.89042 7.64702 9.07147 6.68757H13.335C13.516 7.64702 13.621 8.70776 13.6411 9.81256H8.76542ZM13.6411 10.5938C13.621 11.6986 13.516 12.7594 13.335 13.7188H9.07147C8.89046 12.7594 8.78542 11.6986 8.76542 10.5938H13.6411ZM11.2032 2.78125C11.2032 2.78125 11.2033 2.78125 11.2033 2.78125C11.7642 2.78129 12.375 3.54211 12.8369 4.81644C12.9596 5.15476 13.069 5.5198 13.1651 5.90636H9.24135C9.33741 5.5198 9.4469 5.1548 9.56948 4.81644C10.0315 3.54211 10.6422 2.78125 11.2032 2.78125ZM9.65725 2.94367C9.35069 3.35422 9.07331 3.893 8.83503 4.55019C8.68362 4.96792 8.55101 5.42265 8.43815 5.90636H5.15476C6.21507 4.41816 7.8103 3.33656 9.65725 2.94367ZM4.04265 8.25003H5.35125C5.56695 8.25003 5.74187 8.07514 5.74187 7.8594C5.74187 7.64366 5.56699 7.46878 5.35125 7.46878H4.30332C4.41004 7.20034 4.53207 6.93964 4.66824 6.68757H8.27769C8.10397 7.65663 8.00335 8.7155 7.98401 9.81256H3.79156C3.81961 9.27463 3.90555 8.7519 4.04265 8.25003ZM3.79156 10.5938H7.98405C8.00335 11.6909 8.10397 12.7497 8.27772 13.7188H4.66824C4.16101 12.7797 3.85023 11.7196 3.79156 10.5938ZM5.1548 14.5001H8.43815C8.55104 14.9837 8.68362 15.4385 8.83503 15.8562C9.07331 16.5133 9.35069 17.0521 9.65725 17.4627C7.81034 17.0698 6.21511 15.9882 5.1548 14.5001ZM11.2033 17.6251C11.2033 17.6251 11.2032 17.6251 11.2032 17.6251C10.6422 17.625 10.0315 16.8643 9.56952 15.5899C9.4469 15.2516 9.33745 14.8866 9.24139 14.5001H13.1651C13.069 14.8866 12.9596 15.2516 12.837 15.5899C12.375 16.8643 11.7643 17.625 11.2033 17.6251ZM16.6719 21.2188C14.7803 21.2188 13.2331 19.717 13.1593 17.8431C13.1584 17.8187 13.1577 17.7963 13.1572 17.7751C13.1567 17.7511 13.1563 17.7272 13.1563 17.7031C13.1563 15.7646 14.7334 14.1875 16.6719 14.1875C16.7185 14.1875 16.7649 14.1887 16.8111 14.1905C16.8197 14.1908 16.8283 14.1911 16.8368 14.1915C16.8797 14.1935 16.9225 14.1963 16.9651 14.1998C16.977 14.2008 16.9889 14.2019 17.0008 14.203C17.0414 14.2068 17.0819 14.2111 17.1223 14.2163C17.136 14.218 17.1495 14.2201 17.1632 14.222C17.193 14.2262 17.2227 14.2308 17.2524 14.2357C17.2758 14.2396 17.2992 14.2438 17.3225 14.2481C17.3483 14.2529 17.374 14.258 17.3997 14.2635C17.4211 14.268 17.4426 14.2726 17.4639 14.2775C17.4934 14.2843 17.5228 14.2915 17.5521 14.2991C17.5775 14.3057 17.6029 14.3126 17.6281 14.3197C17.6361 14.3219 17.6439 14.3244 17.6518 14.3266C17.6999 14.3406 17.7476 14.3554 17.7947 14.3714C17.7974 14.3722 17.8 14.3732 17.8026 14.374C19.1882 14.846 20.1875 16.16 20.1875 17.7031C20.1876 19.6416 18.6105 21.2188 16.6719 21.2188Z" fill="#0082DA"/>
<path d="M16.6718 16.043C16.1333 16.043 15.6953 16.4811 15.6953 17.0195C15.6953 17.4191 15.9366 17.7632 16.2812 17.9142V18.9726C16.2812 19.1883 16.456 19.3632 16.6718 19.3632C16.8875 19.3632 17.0624 19.1883 17.0624 18.9726V17.9143C17.407 17.7632 17.6484 17.4191 17.6484 17.0195C17.6484 16.4811 17.2103 16.043 16.6718 16.043Z" fill="#0082DA"/>
<path d="M6.48383 7.46875H6.47461C6.25887 7.46875 6.08398 7.64363 6.08398 7.85937C6.08398 8.07512 6.25883 8.25 6.47461 8.25H6.48383C6.69953 8.25 6.87445 8.07512 6.87445 7.85937C6.87445 7.64363 6.69953 7.46875 6.48383 7.46875Z" fill="#0082DA"/>
<path d="M16.1342 11.375H16.125C15.9093 11.375 15.7344 11.5499 15.7344 11.7656C15.7344 11.9814 15.9093 12.1562 16.125 12.1562H16.1342C16.3499 12.1562 16.5248 11.9814 16.5248 11.7656C16.5248 11.5499 16.35 11.375 16.1342 11.375Z" fill="#0082DA"/>
</svg>
