<svg width="24" height="24" viewBox="0 0 24 24" fill="none" xmlns="http://www.w3.org/2000/svg">
<path d="M17.8998 17.032C17.7225 16.9091 17.4791 16.9533 17.3562 17.1306C17.2372 17.3025 17.1022 17.4696 16.955 17.6273C16.8564 17.7332 16.7207 17.8607 16.573 17.9864C16.4087 18.1262 16.3889 18.3727 16.5287 18.5371C16.6059 18.6279 16.7158 18.6745 16.8264 18.6745C16.9159 18.6745 17.0058 18.6439 17.0794 18.5813C17.2517 18.4347 17.4063 18.2891 17.5264 18.1601C17.6991 17.975 17.8579 17.7784 17.9984 17.5756C18.1213 17.3982 18.0771 17.1549 17.8998 17.032Z" fill="#0082DA"/>
<path d="M16.1983 18.7834C16.1067 18.5881 15.8742 18.504 15.6788 18.5957L15.6666 18.6012C15.4692 18.6882 15.3798 18.9189 15.467 19.1162C15.5314 19.2623 15.6745 19.3492 15.8245 19.3492C15.8772 19.3492 15.9308 19.3385 15.982 19.3159C15.9915 19.3117 16.001 19.3074 16.0105 19.303C16.2058 19.2114 16.2899 18.9788 16.1983 18.7834Z" fill="#0082DA"/>
<path d="M20.833 3H3.16699C2.52348 3 2 3.52355 2 4.16699V15.1143C2 15.7577 2.52348 16.2812 3.16699 16.2812H11.393C11.7417 17.7566 12.5303 18.8015 13.2194 19.471C14.2254 20.4482 15.3785 20.9687 15.8242 20.9687C16.2698 20.9687 17.4229 20.4483 18.4289 19.471C19.1181 18.8015 19.9066 17.7566 20.2553 16.2813H20.833C21.4765 16.2813 22 15.7577 22 15.1144V4.16699C22 3.52355 21.4765 3 20.833 3ZM19.6562 14.6804C19.6563 16.7385 18.7062 18.1037 17.9092 18.8865C16.9638 19.8152 15.994 20.1764 15.8242 20.1873C15.6543 20.1764 14.6845 19.8152 13.739 18.8865C12.9421 18.1037 11.9921 16.7385 11.9921 14.6804V12.7567C13.337 12.3678 14.5954 11.8355 15.8243 11.1359C17.0254 11.8177 18.3403 12.3737 19.6562 12.7565V14.6804ZM21.2188 15.1143C21.2188 15.327 21.0457 15.5 20.833 15.5H20.3912C20.4211 15.2382 20.4375 14.9653 20.4375 14.6804V12.4605C20.4375 12.2842 20.3194 12.1298 20.1493 12.0836C18.7308 11.6984 17.3034 11.0981 16.0215 10.3478C15.8996 10.2765 15.7487 10.2765 15.6268 10.3479C14.3085 11.1195 12.9583 11.6872 11.499 12.0836C11.3289 12.1298 11.2108 12.2842 11.2108 12.4605V14.6804C11.2108 14.9653 11.2272 15.2382 11.2571 15.5H3.16699C2.9543 15.5 2.78125 15.3269 2.78125 15.1143V8.46866H21.2188V15.1143ZM21.2188 7.68745H2.78125V6.12503H21.2188V7.68745ZM21.2188 5.34375H2.78125V4.16699C2.78125 3.9543 2.9543 3.78125 3.16699 3.78125H20.833C21.0457 3.78125 21.2188 3.9543 21.2188 4.16699V5.34375Z" fill="#0082DA"/>
<path d="M6.68734 11.2031C6.45183 11.2031 6.21929 11.2507 6.00406 11.3415C5.79378 11.2524 5.56269 11.2031 5.32035 11.2031C4.35109 11.2031 3.5625 11.9916 3.5625 12.9609C3.5625 13.9301 4.35105 14.7187 5.32035 14.7187C5.56269 14.7187 5.79378 14.6694 6.00402 14.5803C6.21929 14.671 6.45183 14.7187 6.68734 14.7187C7.65663 14.7187 8.44522 13.9301 8.44522 12.9609C8.44522 11.9916 7.65663 11.2031 6.68734 11.2031ZM5.32035 13.9374C4.78183 13.9374 4.34375 13.4994 4.34375 12.9609C4.34375 12.4224 4.78183 11.9844 5.32035 11.9844C5.85878 11.9844 6.29687 12.4224 6.29687 12.9609C6.29687 13.4993 5.85878 13.9374 5.32035 13.9374ZM6.78417 13.9327C6.96972 13.6541 7.07812 13.3199 7.07812 12.9609C7.07812 12.6019 6.96972 12.2678 6.78421 11.9892C7.27738 12.038 7.66394 12.4552 7.66394 12.9609C7.66394 13.4666 7.27738 13.8839 6.78417 13.9327Z" fill="#0082DA"/>
<path d="M5.96238 9.44531H3.95312C3.73738 9.44531 3.5625 9.62019 3.5625 9.83594C3.5625 10.0516 3.73738 10.2266 3.95312 10.2266H5.96238C6.17812 10.2266 6.353 10.0516 6.353 9.83594C6.353 9.62019 6.17812 9.44531 5.96238 9.44531Z" fill="#0082DA"/>
<path d="M7.11617 9.44531H7.09766C6.88191 9.44531 6.70703 9.62019 6.70703 9.83594C6.70703 10.0516 6.88191 10.2266 7.09766 10.2266H7.11617C7.33187 10.2266 7.5068 10.0516 7.5068 9.83594C7.5068 9.62019 7.33187 9.44531 7.11617 9.44531Z" fill="#0082DA"/>
<path d="M17.9693 13.7821C17.8168 13.6296 17.5695 13.6296 17.4169 13.7821L15.3279 15.8708L14.2333 14.7761C14.0807 14.6237 13.8334 14.6236 13.6808 14.7761C13.5283 14.9287 13.5282 15.176 13.6808 15.3286L15.0517 16.6995C15.128 16.7758 15.228 16.814 15.3279 16.814C15.4279 16.814 15.5279 16.7758 15.6041 16.6995L17.9692 14.3346C18.1218 14.1821 18.1218 13.9347 17.9693 13.7821Z" fill="#0082DA"/>
</svg>
