<svg width="24" height="24" viewBox="0 0 24 24" fill="none" xmlns="http://www.w3.org/2000/svg">
<path d="M21.9621 15.1608C21.8974 15.0247 21.7601 14.938 21.6094 14.938H19.3804V4.13309C19.3804 3.91743 19.2055 3.74246 18.9898 3.74246H14.0168C13.8011 3.74246 13.6262 3.91743 13.6262 4.13309V8.02294C13.221 7.85669 12.785 7.75029 12.3293 7.71564L7.79984 2.14418C7.72562 2.05293 7.61429 2 7.49671 2C7.37913 2 7.2678 2.05293 7.19359 2.14418L2.08752 8.42497C1.99244 8.54193 1.97315 8.70314 2.03791 8.83923C2.10264 8.97525 2.2399 9.06201 2.39065 9.06201H4.61956V19.867C4.61956 20.0826 4.79448 20.2576 5.01018 20.2576H9.98328C10.199 20.2576 10.3739 20.0826 10.3739 19.867V15.977C10.7791 16.1433 11.215 16.2496 11.6706 16.2844L16.2001 21.8558C16.2743 21.947 16.3856 22 16.5032 22C16.6208 22 16.7321 21.947 16.8063 21.8558L21.9125 15.5751C22.0075 15.4581 22.0269 15.2969 21.9621 15.1608ZM9.59265 19.4763H5.40085V8.67138C5.40085 8.45564 5.22596 8.28076 5.01022 8.28076H3.21166L7.49671 3.00985L11.352 7.75196C9.28906 8.06536 7.70316 9.85087 7.70316 12C7.70316 13.4779 8.4532 14.7839 9.59265 15.5574V19.4763ZM8.48441 12C8.48441 10.0615 10.0615 8.48439 12 8.48439C13.9386 8.48439 15.5157 10.0615 15.5157 12C15.5157 13.9385 13.9386 15.5157 12 15.5157C10.0615 15.5157 8.48441 13.9385 8.48441 12ZM16.5032 20.9902L12.648 16.2481C14.711 15.9347 16.2969 14.1492 16.2969 12C16.2969 10.522 15.5469 9.21611 14.4075 8.44259V4.52372H18.5992V15.3286C18.5992 15.5443 18.7741 15.7192 18.9898 15.7192H20.7884L16.5032 20.9902Z" fill="#0082DA"/>
<path d="M14.145 10.7662C13.9925 10.6138 13.7452 10.6137 13.5926 10.7662L11.5037 12.855L10.409 11.7603C10.2565 11.6078 10.0092 11.6078 9.8566 11.7603C9.70406 11.9128 9.70406 12.1602 9.85656 12.3127L11.2275 13.6837C11.3038 13.76 11.4037 13.7981 11.5037 13.7981C11.6037 13.7981 11.7036 13.76 11.7799 13.6837L14.145 11.3187C14.2975 11.1662 14.2976 10.9189 14.145 10.7662Z" fill="#0082DA"/>
<path d="M6.57227 16.2952C6.35656 16.2952 6.18164 16.47 6.18164 16.6858V18.3045C6.18164 18.5202 6.35656 18.6951 6.57227 18.6951C6.78797 18.6951 6.96289 18.5202 6.96289 18.3045V16.6858C6.96289 16.47 6.78797 16.2952 6.57227 16.2952Z" fill="#0082DA"/>
<path d="M6.57227 15.1404C6.35656 15.1404 6.18164 15.3153 6.18164 15.531V15.5496C6.18164 15.7652 6.35656 15.9402 6.57227 15.9402C6.78797 15.9402 6.96289 15.7652 6.96289 15.5496V15.531C6.96289 15.3153 6.78797 15.1404 6.57227 15.1404Z" fill="#0082DA"/>
<path d="M17.4277 5.30493C17.212 5.30493 17.0371 5.47981 17.0371 5.69556V7.31423C17.0371 7.52997 17.212 7.70486 17.4277 7.70486C17.6434 7.70486 17.8184 7.52997 17.8184 7.31423V5.69556C17.8184 5.47981 17.6434 5.30493 17.4277 5.30493Z" fill="#0082DA"/>
<path d="M17.4277 8.05981C17.212 8.05981 17.0371 8.2347 17.0371 8.45044V8.46907C17.0371 8.68474 17.212 8.8597 17.4277 8.8597C17.6434 8.8597 17.8184 8.68474 17.8184 8.46907V8.45044C17.8184 8.23466 17.6434 8.05981 17.4277 8.05981Z" fill="#0082DA"/>
</svg>
