<svg width="24" height="24" viewBox="0 0 24 24" fill="none" xmlns="http://www.w3.org/2000/svg">
<g clip-path="url(#clip0)">
<path d="M21.4242 14.1225C22.8725 7.61415 17.1708 1.70165 10.475 2.83665C6.84 0.580819 2 3.12999 2 7.45499C2 8.46082 2.2775 9.40249 2.76 10.2142C1.41417 16.7375 7.1625 22.565 13.8525 21.3525C18.5817 23.8533 23.8075 18.8658 21.4242 14.1225ZM15.0592 18.0475C13.3025 18.77 10.4117 18.7742 8.6625 17.8583C6.16833 16.5283 5.725 13.5342 7.87667 13.5342C9.49833 13.5342 8.985 15.425 10.6225 16.1958C11.3742 16.5433 12.99 16.5792 13.9292 15.9458C14.8567 15.325 14.7717 14.3483 14.2675 13.8817C12.9317 12.6483 9.10917 13.1383 7.36167 10.9792C6.6025 10.0425 6.45917 8.38999 7.3925 7.19165C9.01917 5.09832 13.7925 4.97082 15.845 6.55165C17.74 8.01832 17.2283 9.96499 15.6992 9.96499C13.86 9.96499 14.8267 7.55832 11.8575 7.55832C9.705 7.55832 8.85833 9.08915 10.3742 9.83415C12.4292 10.855 17.6658 10.5142 17.6658 14.5033C17.6617 16.1633 16.6442 17.4008 15.0592 18.0475Z" fill="black"/>
</g>
<defs>
<clipPath id="clip0">
<rect width="20" height="20" fill="white" transform="translate(2 2)"/>
</clipPath>
</defs>
</svg>
