<svg width="20" height="20" viewBox="0 0 20 20" fill="none" xmlns="http://www.w3.org/2000/svg">
<circle cx="10" cy="10" r="4" transform="rotate(90 10 10)" fill="#384955"/>
<path fill-rule="evenodd" clip-rule="evenodd" d="M0.5 10C0.499999 15.2467 4.75329 19.5 10 19.5C15.2467 19.5 19.5 15.2467 19.5 10C19.5 4.75329 15.2467 0.5 10 0.5C4.75329 0.499999 0.5 4.75329 0.5 10ZM-4.37114e-07 10C-6.78525e-07 15.5228 4.47715 20 10 20C15.5228 20 20 15.5228 20 10C20 4.47715 15.5228 -1.95703e-07 10 -4.37114e-07C4.47715 -6.78525e-07 -1.95703e-07 4.47715 -4.37114e-07 10Z" fill="#384955"/>
</svg>
